HIERARCHY
ROOT Hips
{
  OFFSET 0.0502701 92.146 0
  CHANNELS 6 Xposition Yposition Zposition Zrotation Xrotation Yrotation
  JOINT Bip01_Pelvis
  {
    OFFSET 0 0 0
    CHANNELS 6 Xposition Yposition Zposition Zrotation Xrotation Yrotation
    JOINT BN_Tai_01
    {
      OFFSET -4.6544 -2.06234 0
      CHANNELS 6 Xposition Yposition Zposition Zrotation Xrotation Yrotation
      JOINT BN_Tai_R_01
      {
        OFFSET 10.2279 -0.119812 3.68897
        CHANNELS 6 Xposition Yposition Zposition Zrotation Xrotation Yrotation
        JOINT BN_Tai_R_02
        {
          OFFSET 15.0421 0 1.52588e-005
          CHANNELS 6 Xposition Yposition Zposition Zrotation Xrotation Yrotation
          End Site
          {
            OFFSET 0 0 0
          }
        }
      }
      JOINT BN_Tai_L_01
      {
        OFFSET 10.2279 -0.119797 -3.68907
        CHANNELS 6 Xposition Yposition Zposition Zrotation Xrotation Yrotation
        JOINT BN_Tai_L_02
        {
          OFFSET 15.0421 0 0
          CHANNELS 6 Xposition Yposition Zposition Zrotation Xrotation Yrotation
          End Site
          {
            OFFSET 0 0 0
          }
        }
      }
    }
    JOINT Bip01_Spine
    {
      OFFSET 2.7319 1.49192 0
      CHANNELS 6 Xposition Yposition Zposition Zrotation Xrotation Yrotation
      JOINT Bip01_R_Thigh
      {
        OFFSET -2.85206 -1.24717 -6.20578
        CHANNELS 6 Xposition Yposition Zposition Zrotation Xrotation Yrotation
        JOINT Bip01_R_Calf
        {
          OFFSET 6.73247 0 0
          CHANNELS 6 Xposition Yposition Zposition Zrotation Xrotation Yrotation
          JOINT Bip01_R_HorseLink
          {
            OFFSET 8.08523 0 0
            CHANNELS 6 Xposition Yposition Zposition Zrotation Xrotation Yrotation
            JOINT Bip01_R_Foot
            {
              OFFSET 8.97518 0 0
              CHANNELS 6 Xposition Yposition Zposition Zrotation Xrotation Yrotation
              JOINT BN_Toe_R_30
              {
                OFFSET 1.58762 -0.234982 -0.295153
                CHANNELS 6 Xposition Yposition Zposition Zrotation Xrotation Yrotation
                JOINT BN_Toe_R_31
                {
                  OFFSET 3.03849 0 0
                  CHANNELS 6 Xposition Yposition Zposition Zrotation Xrotation Yrotation
                  End Site
                  {
                    OFFSET 0 0 0
                  }
                }
              }
              JOINT BN_Toe_R_00
              {
                OFFSET 1.65463 0.933666 1.02414
                CHANNELS 6 Xposition Yposition Zposition Zrotation Xrotation Yrotation
                JOINT BN_Toe_R_01
                {
                  OFFSET 3.51775 0 0
                  CHANNELS 6 Xposition Yposition Zposition Zrotation Xrotation Yrotation
                  End Site
                  {
                    OFFSET 0 0 0
                  }
                }
              }
              JOINT BN_Toe_R_20
              {
                OFFSET 1.47309 1.0106 -1.16708
                CHANNELS 6 Xposition Yposition Zposition Zrotation Xrotation Yrotation
                JOINT BN_Toe_R_21
                {
                  OFFSET 3.94896 0 0
                  CHANNELS 6 Xposition Yposition Zposition Zrotation Xrotation Yrotation
                  End Site
                  {
                    OFFSET 0 0 0
                  }
                }
              }
              JOINT BN_Toe_R_10
              {
                OFFSET 1.07522 1.64225 0.0223596
                CHANNELS 6 Xposition Yposition Zposition Zrotation Xrotation Yrotation
                JOINT BN_Toe_R_11
                {
                  OFFSET 4.09655 0 0
                  CHANNELS 6 Xposition Yposition Zposition Zrotation Xrotation Yrotation
                  End Site
                  {
                    OFFSET 0 0 0
                  }
                }
              }
              JOINT Bip01_R_Toe0
              {
                OFFSET 2.04238 1.88275 0
                CHANNELS 6 Xposition Yposition Zposition Zrotation Xrotation Yrotation
                End Site
                {
                  OFFSET 0 0 0
                }
              }
            }
          }
        }
      }
      JOINT Bip01_L_Thigh
      {
        OFFSET -2.85154 -1.24849 6.20577
        CHANNELS 6 Xposition Yposition Zposition Zrotation Xrotation Yrotation
        JOINT Bip01_L_Calf
        {
          OFFSET 6.73247 0 0
          CHANNELS 6 Xposition Yposition Zposition Zrotation Xrotation Yrotation
          JOINT Bip01_L_HorseLink
          {
            OFFSET 8.08524 0 0
            CHANNELS 6 Xposition Yposition Zposition Zrotation Xrotation Yrotation
            JOINT Bip01_L_Foot
            {
              OFFSET 8.97521 0 0
              CHANNELS 6 Xposition Yposition Zposition Zrotation Xrotation Yrotation
              JOINT BN_Toe_L_00
              {
                OFFSET 1.65461 0.933701 -1.02419
                CHANNELS 6 Xposition Yposition Zposition Zrotation Xrotation Yrotation
                JOINT BN_Toe_L_01
                {
                  OFFSET 3.51778 0 0
                  CHANNELS 6 Xposition Yposition Zposition Zrotation Xrotation Yrotation
                  End Site
                  {
                    OFFSET 0 0 0
                  }
                }
              }
              JOINT BN_Toe_L_10
              {
                OFFSET 1.07523 1.6422 -0.0221281
                CHANNELS 6 Xposition Yposition Zposition Zrotation Xrotation Yrotation
                JOINT BN_Toe_L_11
                {
                  OFFSET 4.09657 0 0
                  CHANNELS 6 Xposition Yposition Zposition Zrotation Xrotation Yrotation
                  End Site
                  {
                    OFFSET 0 0 0
                  }
                }
              }
              JOINT BN_Toe_L_30
              {
                OFFSET 1.58761 -0.234954 0.295135
                CHANNELS 6 Xposition Yposition Zposition Zrotation Xrotation Yrotation
                JOINT BN_Toe_L_31
                {
                  OFFSET 3.03847 0 0
                  CHANNELS 6 Xposition Yposition Zposition Zrotation Xrotation Yrotation
                  End Site
                  {
                    OFFSET 0 0 0
                  }
                }
              }
              JOINT BN_Toe_L_20
              {
                OFFSET 1.4731 1.01055 1.1673
                CHANNELS 6 Xposition Yposition Zposition Zrotation Xrotation Yrotation
                JOINT BN_Toe_L_21
                {
                  OFFSET 3.94897 0 0
                  CHANNELS 6 Xposition Yposition Zposition Zrotation Xrotation Yrotation
                  End Site
                  {
                    OFFSET 0 0 0
                  }
                }
              }
              JOINT Bip01_L_Toe0
              {
                OFFSET 2.04238 1.88276 0
                CHANNELS 6 Xposition Yposition Zposition Zrotation Xrotation Yrotation
                End Site
                {
                  OFFSET 0 0 0
                }
              }
            }
          }
        }
      }
      JOINT Bip01_Spine1
      {
        OFFSET 8.6167 -0.00679016 0
        CHANNELS 6 Xposition Yposition Zposition Zrotation Xrotation Yrotation
        JOINT BN_Wing_R_01
        {
          OFFSET 0.267445 -6.12421 -7.49305
          CHANNELS 6 Xposition Yposition Zposition Zrotation Xrotation Yrotation
          JOINT BN_Wing_R_02
          {
            OFFSET 14.7158 0 0
            CHANNELS 6 Xposition Yposition Zposition Zrotation Xrotation Yrotation
            JOINT BN_Wing_R_03
            {
              OFFSET 19.0858 0 0
              CHANNELS 6 Xposition Yposition Zposition Zrotation Xrotation Yrotation
              JOINT BN_Wing_R_05
              {
                OFFSET 2.68908 -0.270637 0.785261
                CHANNELS 6 Xposition Yposition Zposition Zrotation Xrotation Yrotation
                JOINT BN_Wing_R_06
                {
                  OFFSET 21.1083 0 0
                  CHANNELS 6 Xposition Yposition Zposition Zrotation Xrotation Yrotation
                  End Site
                  {
                    OFFSET 0 0 0
                  }
                }
              }
              JOINT BN_Wing_R_04
              {
                OFFSET 27.642 0 0
                CHANNELS 6 Xposition Yposition Zposition Zrotation Xrotation Yrotation
                End Site
                {
                  OFFSET 0 0 0
                }
              }
            }
          }
        }
        JOINT BN_Wing_L_01
        {
          OFFSET 0.267452 -6.12421 7.49305
          CHANNELS 6 Xposition Yposition Zposition Zrotation Xrotation Yrotation
          JOINT BN_Wing_L_02
          {
            OFFSET 14.7158 0 0
            CHANNELS 6 Xposition Yposition Zposition Zrotation Xrotation Yrotation
            JOINT BN_Wing_L_03
            {
              OFFSET 19.0858 0 0
              CHANNELS 6 Xposition Yposition Zposition Zrotation Xrotation Yrotation
              JOINT BN_Wing_L_05
              {
                OFFSET 2.68908 -0.270635 -0.785254
                CHANNELS 6 Xposition Yposition Zposition Zrotation Xrotation Yrotation
                JOINT BN_Wing_L_06
                {
                  OFFSET 21.1083 0 0
                  CHANNELS 6 Xposition Yposition Zposition Zrotation Xrotation Yrotation
                  End Site
                  {
                    OFFSET 0 0 0
                  }
                }
              }
              JOINT BN_Wing_L_04
              {
                OFFSET 27.642 0 1.14441e-005
                CHANNELS 6 Xposition Yposition Zposition Zrotation Xrotation Yrotation
                End Site
                {
                  OFFSET 0 0 0
                }
              }
            }
          }
        }
        JOINT Bip01_Neck
        {
          OFFSET 7.59958 -1.43237 0
          CHANNELS 6 Xposition Yposition Zposition Zrotation Xrotation Yrotation
          JOINT Bip01_Neck1
          {
            OFFSET 3.64749 -0.00262451 0
            CHANNELS 6 Xposition Yposition Zposition Zrotation Xrotation Yrotation
            JOINT Bip01_Neck2
            {
              OFFSET 3.32331 -0.00284576 0
              CHANNELS 6 Xposition Yposition Zposition Zrotation Xrotation Yrotation
              JOINT Bip01_Head
              {
                OFFSET 4.63256 -0.573471 0
                CHANNELS 6 Xposition Yposition Zposition Zrotation Xrotation Yrotation
                JOINT BN_Jaw
                {
                  OFFSET 1.05386 2.23561 0
                  CHANNELS 6 Xposition Yposition Zposition Zrotation Xrotation Yrotation
                  End Site
                  {
                    OFFSET 0 0 0
                  }
                }
              }
            }
          }
        }
      }
    }
  }
}
MOTION
Frames:	4
Frame Time:	0.0333333
0.0502691 96.9771 0 102.159 -89.9999 -78.2507 0 -3.63798e-012 0 89.9931 39.3031 89.9932 -4.65434 -2.06247 -9.31323e-010 -8.12547 1.94851 179.532 10.228 -0.120064 3.68889 28.6032 80.8654 -27.8416 15.0421 2.98023e-008 3.8147e-006 5.14665 -4.542 9.38256 10.2278 -0.120068 -3.68915 -138.507 78.4916 143.9 15.0421 -8.88179e-016 -3.8147e-006 -5.15 4.54187 9.37918 -2.48578 1.87435 -1.73472e-018 -11.1181 -0.00123748 -1.25103 7.6294e-006 -7.6294e-006 -6.20578 -60.8128 -7.67324 -172.275 6.73248 -3.8147e-006 1.90735e-006 -40.9468 -1.33979e-005 -1.13583e-005 8.08523 -4.76837e-007 -9.53674e-007 60.6573 7.78912e-007 -8.42402e-007 8.9752 0 1.77636e-015 -37.4909 1.65304 -6.04275 1.58769 -0.23461 -0.295067 146.286 -6.06153 172.005 3.03848 0.000823021 -9.53674e-007 -26.3555 -0.00601053 -0.00500961 1.65434 0.934261 1.02404 50.0155 36.8651 -35.5643 3.51775 -0.00142288 0.00177193 -38.7447 0.014728 -0.0207874 1.47286 1.0108 -1.16719 33.8079 -17.5383 21.1703 3.94896 0.000770569 8.9407e-008 -24.1479 0.504244 -1.13673 1.07478 1.64254 0.0221283 32.4776 -7.24618 -3.22388 4.09656 0.00112534 -8.88178e-016 -26.1904 -0.00681307 -0.00158506 2.04188 1.88329 -8.88178e-016 32.8775 7.53232 -9.62135 -1.52588e-005 -3.8147e-006 6.20577 -61.6994 5.71219 174.793 6.73249 -7.6294e-006 -4.76837e-007 -43.7635 -1.00628e-006 6.41121e-007 8.08525 -1.77636e-015 4.76837e-007 76.7904 2.99869e-006 -1.12849e-005 8.97519 -7.62939e-006 4.76837e-007 -80.5109 -10.736 -4.38923 1.65464 0.93365 -1.0242 63.9227 -30.8815 32.0807 3.51776 7.10542e-015 9.53674e-007 -10.2815 -1.61142e-005 -4.09041e-006 1.07526 1.64217 -0.0221434 44.018 0.873669 8.07009 4.09657 -1.14441e-005 -2.38419e-007 -6.60281 8.29284e-006 1.11645e-005 1.58763 -0.234992 0.295126 166.799 5.17192 179.647 3.03848 3.55271e-015 0 -28.9162 9.41063e-006 5.43425e-006 1.47314 1.01053 1.16728 47.7274 26.7705 -11.8389 3.94897 0 -1.19209e-007 -6.04941 6.44336e-007 2.16174e-007 2.04243 1.8827 9.53674e-007 71.8379 -2.72493 0.0002395 8.61808 -0.0066185 2.22045e-016 3.1906 0.00397779 2.6555 0.267601 -6.12424 -7.49304 -62.4406 1.14349 27.1285 14.7158 7.62939e-006 7.62939e-006 51.381 5.15706 -4.82037 19.0858 0 1.90735e-006 -36.6053 -2.24683 23.928 2.68913 -0.27058 0.785255 -43.8612 2.4697 4.79227 21.1083 7.62939e-006 0 -1.32051 -2.34544 36.8282 27.642 -3.8147e-006 -1.52588e-005 -2.63427 -0.0509225 40.8151 0.267609 -6.12423 7.49306 -62.4406 -1.1435 -27.1285 14.7158 1.14441e-005 -3.8147e-006 51.381 -5.15707 4.82037 19.0859 3.8147e-006 9.53674e-006 -36.6053 2.24683 -23.928 2.68907 -0.270191 -0.785805 -43.8612 -2.46969 -4.79227 21.1083 -7.62939e-006 -7.62939e-006 -1.32049 2.34547 -36.8282 27.642 0 0 -2.63432 0.0508744 -40.8151 7.59912 -1.43219 2.38419e-007 -2.618 4.08383 -3.76471 3.64795 -0.00254059 -1.19209e-007 2.87895 0.00396091 2.24593 3.32397 -0.00277329 -2.38419e-007 8.335 0.00449531 1.74594 4.63258 -0.573326 -1.77636e-015 -7.76206 -4.0185 -1.23376 1.05384 2.23562 -3.72529e-009 -100.52 -0.0338287 -179.972 
0.0539868 96.654 -1.88633e-008 90.6649 -89.9999 -90 -2.22045e-016 -3.63798e-012 0 89.9931 39.2317 89.9932 -4.65434 -2.06247 -9.31324e-010 -7.18187 1.94055 179.5 10.228 -0.120064 3.68889 30.7588 80.8636 -30.8844 15.0421 2.98023e-008 3.8147e-006 5.12429 -4.54798 9.02074 10.2278 -0.120068 -3.68915 -137.26 78.4642 141.771 15.0421 -1.77636e-015 -3.8147e-006 -5.11337 4.54932 8.88656 -2.48877 1.87098 2.25279e-012 -11.4569 0.00594446 -1.24995 7.6294e-006 -7.6294e-006 -6.20578 -59.2562 -7.47106 -172.156 6.73248 -3.8147e-006 1.90735e-006 -39.1959 -1.37435e-005 -1.09378e-005 8.08523 -4.76837e-007 -9.53674e-007 60.754 7.77489e-007 -8.43716e-007 8.9752 -1.42109e-014 7.10543e-015 -38.2431 1.68152 -5.99838 1.58769 -0.23461 -0.295067 146.169 -6.0487 171.993 3.03848 0.000823021 -9.53674e-007 -26.1288 -0.00465546 -0.00437227 1.65434 0.934261 1.02404 50.0305 36.8598 -35.6423 3.51775 -0.00142288 0.00177193 -38.5671 0.00956445 -0.0141714 1.47286 1.0108 -1.16719 33.8902 -17.5053 21.1772 3.94896 0.000770569 8.94069e-008 -24.7118 0.520773 -1.12641 1.07478 1.64254 0.0221283 32.5039 -7.24608 -3.24433 4.09656 0.00112534 8.88178e-016 -26.107 -0.00668877 0.00569966 2.04188 1.88329 -4.19709e-012 33.1964 7.52651 -9.61521 -1.52588e-005 -3.8147e-006 6.20577 -60.7617 5.69344 174.769 6.73249 -7.6294e-006 -4.76837e-007 -43.2319 -9.98564e-007 6.35561e-007 8.08525 0 4.76837e-007 76.9283 1.27215e-005 -9.02414e-006 8.97519 -7.62939e-006 4.76837e-007 -80.0016 -10.6171 -4.39029 1.65464 0.93365 -1.0242 64.0215 -30.8136 32.1387 3.51776 2.84217e-014 9.53674e-007 -10.6344 -0.000664864 0.00345141 1.07526 1.64217 -0.0221434 44.1106 0.886804 8.06866 4.09657 -1.14441e-005 -2.38419e-007 -6.99199 9.43605e-006 1.39527e-006 1.58763 -0.234992 0.295126 166.966 5.19319 179.635 3.03848 1.77636e-014 3.55271e-015 -28.6053 4.70501e-006 1.42007e-005 1.47314 1.01053 1.16728 47.858 26.7429 -11.895 3.94897 -2.13163e-014 -1.19209e-007 -5.7371 6.50868e-007 1.95363e-007 2.04243 1.8827 9.53879e-007 72.2098 -2.73858 -0.000635752 8.61808 -0.0066185 4.44089e-016 3.31611 0.00979914 2.65549 0.267601 -6.12424 -7.49304 -61.7231 0.585515 27.4275 14.7158 7.62939e-006 7.62939e-006 47.9472 4.65714 -4.52033 19.0858 0 1.90735e-006 -32.8952 1.58154 19.4665 2.68913 -0.27058 0.785255 -43.8976 2.48654 4.21825 21.1083 7.62939e-006 0 -1.39374 -2.32629 35.5193 27.642 -3.8147e-006 -1.52588e-005 -2.1734 -0.156776 40.4539 0.267609 -6.12423 7.49306 -61.727 -0.584565 -27.4275 14.7158 1.14441e-005 -3.8147e-006 47.9472 -4.65714 4.52033 19.0859 3.8147e-006 9.53674e-006 -32.8952 -1.58154 -19.4665 2.68908 -0.270255 -0.785805 -43.9395 -2.4844 -5.12397 21.1083 -7.62939e-006 -7.62939e-006 -1.39372 2.32632 -35.5193 27.642 0 -1.42109e-014 -2.17344 0.156736 -40.4539 7.59912 -1.43219 2.38419e-007 -2.067 4.1038 -3.73759 3.64795 -0.00254059 -1.19209e-007 1.88143 -0.0084228 2.24478 3.32397 -0.00277329 -2.38419e-007 8.41154 0.00682852 1.74594 4.63258 -0.573326 -1.57252e-011 -7.04049 -4.1213 -1.2769 1.05384 2.23562 -3.73648e-009 -100.52 -0.033844 -179.972 
0.0638988 96.2978 -3.96699e-008 97.0084 -89.9999 -84.0665 0 -3.63798e-012 0 89.9931 39.0151 89.9932 -4.65434 -2.06247 -9.31325e-010 -5.90015 1.9289 179.457 10.228 -0.120064 3.68889 33.6439 80.7639 -34.6784 15.0421 2.98023e-008 3.8147e-006 5.0656 -4.56176 8.038 10.2278 -0.120068 -3.68915 -135.573 78.3497 139.175 15.0421 -3.55272e-015 -3.8147e-006 -5.07739 4.55632 8.40349 -2.4957 1.86168 1.96816e-011 -11.7892 0.0129757 -1.24885 7.6294e-006 -7.6294e-006 -6.20578 -57.4632 -7.24414 -172.035 6.73248 -3.8147e-006 1.90735e-006 -37.5569 -1.45293e-005 -9.91777e-006 8.08523 -4.76837e-007 -9.53674e-007 61.1035 7.72328e-007 -8.48443e-007 8.9752 1.42109e-014 -1.77636e-015 -39.1766 1.76375 -5.95427 1.58769 -0.23461 -0.295067 146.055 -6.03604 171.981 3.03848 0.000823021 -9.53674e-007 -25.9066 -0.00332228 -0.00375915 1.65434 0.934261 1.02404 50.2308 36.7637 -35.7564 3.51775 -0.00142288 0.00177193 -38.3929 0.00453456 -0.00769437 1.47286 1.0108 -1.16719 34.1602 -17.4039 21.2554 3.94896 0.000770569 8.94068e-008 -25.2647 0.53689 -1.11616 1.07478 1.64254 0.0221283 32.693 -7.24828 -3.22786 4.09656 0.00112534 4.44089e-015 -26.0252 -0.00655707 0.0128419 2.04188 1.88329 -1.47993e-011 33.5091 7.52081 -9.60919 -1.52588e-005 -3.8147e-006 6.20577 -59.5873 5.70687 174.712 6.73249 -7.6294e-006 -4.76837e-007 -42.7853 -1.0006e-006 6.30847e-007 8.08525 0 4.76837e-007 77.3224 1.26506e-005 -9.11705e-006 8.97519 -7.62939e-006 4.76837e-007 -79.9448 -10.5738 -4.37403 1.65464 0.93365 -1.0242 64.3638 -30.6459 32.3049 3.51776 -1.42108e-014 9.53674e-007 -10.9804 -0.00134233 0.00683198 1.07526 1.64217 -0.0221434 44.4605 0.936378 8.0631 4.09657 -1.14441e-005 -2.38419e-007 -7.37362 8.17471e-006 1.12743e-005 1.58763 -0.234992 0.295126 167.408 5.12612 179.587 3.03848 1.42108e-014 3.55271e-015 -28.3005 9.36997e-006 5.79246e-006 1.47314 1.01053 1.16728 48.2163 26.6678 -12.0537 3.94897 -2.13163e-014 -1.19209e-007 -5.43084 6.48774e-007 2.68647e-007 2.04243 1.8827 9.5407e-007 72.5744 -2.75195 -0.00140714 8.61808 -0.0066185 8.88179e-016 3.65155 0.0253566 2.65539 0.267601 -6.12424 -7.49304 -61.2093 0.189727 27.8367 14.7158 7.62939e-006 7.62939e-006 44.5534 3.97309 -3.73434 19.0858 3.55271e-015 1.90735e-006 -29.411 5.21351 14.0801 2.68913 -0.27058 0.785256 -43.9272 2.53342 3.73765 21.1083 7.62939e-006 7.10543e-015 -1.58016 -2.26598 32.0445 27.642 -3.8147e-006 -1.52588e-005 -0.783809 -0.468206 40.2864 0.267609 -6.12423 7.49306 -61.2093 -0.189727 -27.8367 14.7158 1.14441e-005 -3.8147e-006 44.5534 -3.97309 3.73434 19.0859 3.8147e-006 9.53674e-006 -29.411 -5.21352 -14.0801 2.68907 -0.270323 -0.7858 -43.9801 -2.52675 -4.95957 21.1083 -7.62939e-006 -7.62939e-006 -1.58014 2.26601 -32.0445 27.642 7.10542e-015 1.42109e-014 -0.783834 0.468182 -40.2864 7.59912 -1.43219 2.38419e-007 -1.56445 4.13514 -3.70294 3.64795 -0.00254059 -1.19209e-007 0.755738 -0.00967508 2.24362 3.32397 -0.00277329 -2.38419e-007 8.72029 0.0162395 1.74587 4.63258 -0.573326 -3.48006e-011 -6.33292 -4.22263 -1.31795 1.05384 2.23562 -3.74026e-009 -100.52 -0.033844 -179.972 
0.0790169 95.9141 -6.20786e-008 91.6144 -89.9999 -90 0 -3.63798e-012 0 89.9931 38.6828 89.9932 -4.65434 -2.06247 -9.31322e-010 -4.32711 1.91327 179.404 10.228 -0.120064 3.68889 37.0426 80.5486 -39.0178 15.0421 2.98023e-008 3.8147e-006 4.96429 -4.58146 6.27865 10.2278 -0.120068 -3.68915 -133.613 78.145 136.281 15.0421 3.55272e-015 -3.8147e-006 -4.99353 4.57352 7.10735 -2.50681 1.84713 1.83824e-011 -12.116 0.0198664 -1.24766 7.6294e-006 -7.6294e-006 -6.20578 -55.4526 -6.97372 -171.93 6.73248 -3.8147e-006 1.90735e-006 -36.0016 -1.43271e-005 -1.01611e-005 8.08523 -4.76837e-007 -9.53674e-007 61.6607 7.64041e-007 -8.55913e-007 8.9752 0 0 -40.2072 1.86624 -5.90912 1.58769 -0.23461 -0.295067 145.831 -6.0342 171.948 3.03848 0.000823021 -9.53674e-007 -25.6821 -0.00197064 -0.00314969 1.65434 0.934261 1.02404 50.4327 36.6662 -35.8712 3.51775 -0.00142288 0.00177193 -38.217 -0.000539441 -0.00111371 1.47286 1.0108 -1.16719 34.5437 -17.2541 21.3637 3.94896 0.000770569 8.94066e-008 -26.6591 0.558888 -1.11481 1.07478 1.64254 0.0221283 32.884 -7.25044 -3.21121 4.09656 0.00112534 5.32907e-015 -25.7475 -0.00580107 0.0114289 2.04188 1.88329 -2.90603e-011 34.4862 7.49317 -9.57754 -1.52588e-005 -3.8147e-006 6.20577 -58.1956 5.72135 174.674 6.73249 -7.6294e-006 -4.76837e-007 -42.3949 -1.00119e-006 6.26696e-007 8.08525 1.77636e-015 4.76837e-007 77.9373 2.73992e-006 -1.13489e-005 8.97519 -7.62939e-006 4.76837e-007 -80.2321 -10.567 -4.33535 1.65464 0.93365 -1.0242 64.8457 -30.3814 32.5499 3.51776 0 9.53674e-007 -11.977 -0.000827331 0.00382137 1.07526 1.64217 -0.0221434 44.9528 1.00608 8.05475 4.09657 -1.14441e-005 -2.38419e-007 -8.48004 -0.000119143 0.000864028 1.58763 -0.234992 0.295126 168.09 5.17926 179.534 3.03848 3.55271e-015 0 -27.9926 5.02414e-006 1.41771e-005 1.47314 1.01053 1.16728 48.7399 26.5621 -12.2807 3.94897 0 -1.19209e-007 -5.12156 6.67591e-007 1.55534e-007 2.04243 1.8827 9.53953e-007 73.6851 -2.79219 -0.00296505 8.61808 -0.0066185 6.66134e-016 4.17192 0.049489 2.65505 0.267601 -6.12424 -7.49304 -60.8047 -0.145313 28.3285 14.7158 7.62939e-006 7.62939e-006 41.1924 3.12775 -2.54723 19.0858 0 1.90735e-006 -25.8697 8.65101 7.83963 2.68913 -0.27058 0.785256 -43.9454 2.60073 3.31654 21.1083 7.62939e-006 0 -1.83579 -2.13737 26.7644 27.642 -3.8147e-006 -1.52588e-005 0.618702 -0.786762 40.1251 0.267609 -6.12423 7.49306 -60.8048 0.145315 -28.3285 14.7158 1.14441e-005 -3.8147e-006 41.1924 -3.12774 2.54723 19.0859 3.8147e-006 9.53674e-006 -25.8697 -8.65101 -7.83964 2.68907 -0.270387 -0.785805 -43.9924 -2.5978 -4.40755 21.1083 -7.62939e-006 -7.62939e-006 -1.83579 2.13738 -26.7644 27.642 -7.10542e-015 -7.10543e-015 0.618684 0.786742 -40.1251 7.59912 -1.43219 2.38419e-007 -1.09577 4.17528 -3.65283 3.64795 -0.00254059 -1.19209e-007 -0.486221 0.000952365 2.24339 3.32397 -0.00277329 -2.38419e-007 9.21803 0.0314103 1.74567 4.63258 -0.573326 -6.12346e-011 -5.61832 -4.32546 -1.35812 1.05384 2.23562 -3.72803e-009 -100.52 -0.0338593 -179.972 
